<mxfile host="Electron" modified="2024-07-05T22:52:36.858Z" agent="Mozilla/5.0 (Windows NT 10.0; Win64; x64) AppleWebKit/537.36 (KHTML, like Gecko) draw.io/24.6.4 Chrome/124.0.6367.207 Electron/30.0.6 Safari/537.36" etag="RrQ5y9zRQLLKbUwBIhWv" version="24.6.4" type="device">
  <diagram name="Page-1" id="bTpvMjrk-m8IayPUnzQr">
    <mxGraphModel dx="1100" dy="990" grid="1" gridSize="10" guides="1" tooltips="1" connect="1" arrows="1" fold="1" page="1" pageScale="1" pageWidth="850" pageHeight="1100" math="0" shadow="0">
      <root>
        <mxCell id="0" />
        <mxCell id="1" parent="0" />
        <mxCell id="E1dW14dmvkVsEUN-O3er-3" style="edgeStyle=orthogonalEdgeStyle;rounded=0;orthogonalLoop=1;jettySize=auto;html=1;exitX=1;exitY=0.5;exitDx=0;exitDy=0;" edge="1" parent="1" source="E1dW14dmvkVsEUN-O3er-1" target="E1dW14dmvkVsEUN-O3er-2">
          <mxGeometry relative="1" as="geometry" />
        </mxCell>
        <mxCell id="E1dW14dmvkVsEUN-O3er-1" value="Mesh Asset (Disk)" style="rounded=1;whiteSpace=wrap;html=1;" vertex="1" parent="1">
          <mxGeometry x="30" y="370" width="120" height="60" as="geometry" />
        </mxCell>
        <mxCell id="E1dW14dmvkVsEUN-O3er-6" style="edgeStyle=orthogonalEdgeStyle;rounded=0;orthogonalLoop=1;jettySize=auto;html=1;exitX=0.5;exitY=0;exitDx=0;exitDy=0;entryX=0.5;entryY=1;entryDx=0;entryDy=0;" edge="1" parent="1" source="E1dW14dmvkVsEUN-O3er-2" target="E1dW14dmvkVsEUN-O3er-7">
          <mxGeometry relative="1" as="geometry">
            <mxPoint x="370" y="190" as="targetPoint" />
          </mxGeometry>
        </mxCell>
        <mxCell id="E1dW14dmvkVsEUN-O3er-22" style="edgeStyle=orthogonalEdgeStyle;rounded=0;orthogonalLoop=1;jettySize=auto;html=1;exitX=1;exitY=0.5;exitDx=0;exitDy=0;entryX=0;entryY=0.5;entryDx=0;entryDy=0;" edge="1" parent="1" source="E1dW14dmvkVsEUN-O3er-2" target="E1dW14dmvkVsEUN-O3er-14">
          <mxGeometry relative="1" as="geometry" />
        </mxCell>
        <mxCell id="E1dW14dmvkVsEUN-O3er-2" value="Asset Manager Load Async" style="rounded=1;whiteSpace=wrap;html=1;" vertex="1" parent="1">
          <mxGeometry x="240" y="260" width="120" height="60" as="geometry" />
        </mxCell>
        <mxCell id="E1dW14dmvkVsEUN-O3er-26" style="edgeStyle=orthogonalEdgeStyle;rounded=0;orthogonalLoop=1;jettySize=auto;html=1;exitX=1;exitY=0.5;exitDx=0;exitDy=0;entryX=0;entryY=0.5;entryDx=0;entryDy=0;" edge="1" parent="1" source="E1dW14dmvkVsEUN-O3er-4" target="E1dW14dmvkVsEUN-O3er-25">
          <mxGeometry relative="1" as="geometry" />
        </mxCell>
        <mxCell id="E1dW14dmvkVsEUN-O3er-4" value="AssetManager Process (process N pending GPU tasks)" style="rounded=1;whiteSpace=wrap;html=1;" vertex="1" parent="1">
          <mxGeometry x="550" y="325" width="100" height="90" as="geometry" />
        </mxCell>
        <mxCell id="E1dW14dmvkVsEUN-O3er-8" style="edgeStyle=orthogonalEdgeStyle;rounded=0;orthogonalLoop=1;jettySize=auto;html=1;exitX=0;exitY=0.5;exitDx=0;exitDy=0;entryX=0.089;entryY=-0.017;entryDx=0;entryDy=0;entryPerimeter=0;" edge="1" parent="1" source="E1dW14dmvkVsEUN-O3er-7" target="E1dW14dmvkVsEUN-O3er-2">
          <mxGeometry relative="1" as="geometry">
            <mxPoint x="250" y="150" as="targetPoint" />
          </mxGeometry>
        </mxCell>
        <mxCell id="E1dW14dmvkVsEUN-O3er-10" value="Required Sub Assets" style="edgeLabel;html=1;align=center;verticalAlign=middle;resizable=0;points=[];" vertex="1" connectable="0" parent="E1dW14dmvkVsEUN-O3er-8">
          <mxGeometry x="0.3545" y="-3" relative="1" as="geometry">
            <mxPoint as="offset" />
          </mxGeometry>
        </mxCell>
        <mxCell id="E1dW14dmvkVsEUN-O3er-7" value="Load Mesh CPU Task" style="rounded=0;whiteSpace=wrap;html=1;" vertex="1" parent="1">
          <mxGeometry x="310" y="120" width="120" height="60" as="geometry" />
        </mxCell>
        <mxCell id="E1dW14dmvkVsEUN-O3er-23" style="edgeStyle=orthogonalEdgeStyle;rounded=0;orthogonalLoop=1;jettySize=auto;html=1;exitX=1;exitY=0.5;exitDx=0;exitDy=0;entryX=0;entryY=0.5;entryDx=0;entryDy=0;" edge="1" parent="1" source="E1dW14dmvkVsEUN-O3er-14" target="E1dW14dmvkVsEUN-O3er-4">
          <mxGeometry relative="1" as="geometry" />
        </mxCell>
        <mxCell id="E1dW14dmvkVsEUN-O3er-14" value="Enqueue pending&lt;div&gt;gpu asset tasks&lt;/div&gt;" style="whiteSpace=wrap;html=1;" vertex="1" parent="1">
          <mxGeometry x="400" y="340" width="120" height="60" as="geometry" />
        </mxCell>
        <mxCell id="E1dW14dmvkVsEUN-O3er-20" value="&lt;span style=&quot;text-wrap: nowrap;&quot;&gt;Assets with GPU&amp;nbsp;&lt;/span&gt;&lt;div&gt;&lt;span style=&quot;text-wrap: nowrap;&quot;&gt;tasks remain in pending&lt;/span&gt;&lt;/div&gt;" style="rounded=1;whiteSpace=wrap;html=1;" vertex="1" parent="1">
          <mxGeometry x="530" y="430" width="140" height="50" as="geometry" />
        </mxCell>
        <mxCell id="E1dW14dmvkVsEUN-O3er-25" value="Processed GPU task asset handles marked as loaded" style="rounded=1;whiteSpace=wrap;html=1;" vertex="1" parent="1">
          <mxGeometry x="680" y="330" width="130" height="60" as="geometry" />
        </mxCell>
      </root>
    </mxGraphModel>
  </diagram>
</mxfile>
